<svg xmlns="http://www.w3.org/2000/svg" xmlns:xlink="http://www.w3.org/1999/xlink" width="500" zoomAndPan="magnify" viewBox="0 0 375 374.999991" height="500" preserveAspectRatio="xMidYMid meet" version="1.0"><defs><clipPath id="d75ee1261a"><path d="M 96.265625 33 L 280.765625 33 L 280.765625 351 L 96.265625 351 Z M 96.265625 33 " clip-rule="nonzero"/></clipPath><clipPath id="62ef9516ea"><path d="M 188.21875 166.636719 L 262.183594 124.085938 L 262.183594 141.792969 C 237.054688 156.355469 211.921875 170.921875 186.792969 185.484375 L 186.792969 167.78125 L 187.933594 167.207031 C 187.933594 167.207031 188.21875 166.921875 188.21875 166.921875 Z M 167.660156 308.570312 L 186.792969 297.71875 L 186.792969 207.191406 C 210.78125 193.480469 234.769531 179.488281 258.757812 165.78125 L 281.320312 152.929688 L 281.320312 87.816406 C 281.320312 86.960938 280.746094 86.105469 280.175781 85.820312 L 190.21875 33.84375 C 189.363281 33.273438 188.503906 33.273438 187.933594 33.84375 L 97.976562 85.820312 C 97.121094 86.390625 96.835938 86.960938 96.835938 87.816406 L 96.835938 300.859375 C 96.835938 301.714844 97.40625 302.574219 97.976562 302.859375 C 98.832031 303.429688 99.691406 303.429688 100.261719 302.859375 L 149.097656 274.871094 C 149.953125 274.300781 150.238281 273.730469 150.238281 272.871094 L 150.238281 118.945312 C 150.238281 118.089844 150.808594 117.230469 151.378906 116.945312 L 168.230469 107.238281 L 168.230469 224.324219 L 167.945312 224.324219 L 167.945312 287.722656 L 97.40625 327.417969 L 96.835938 350.835938 L 167.945312 309.425781 Z M 186.792969 95.527344 L 187.648438 94.957031 C 188.503906 94.386719 189.363281 94.386719 189.933594 94.957031 L 228.488281 117.230469 C 229.34375 117.804688 229.628906 118.375 229.628906 119.230469 C 229.628906 120.089844 229.058594 120.945312 228.488281 121.230469 L 186.507812 145.503906 L 186.507812 95.527344 Z M 250.191406 107.808594 L 190.21875 73.253906 C 189.363281 72.683594 188.503906 72.683594 187.933594 73.253906 L 132.53125 105.238281 C 131.675781 105.808594 131.390625 106.378906 131.390625 107.238281 L 131.390625 261.164062 C 131.390625 262.019531 130.820312 262.878906 130.246094 263.164062 L 119.679688 269.445312 C 118.824219 270.015625 117.96875 270.015625 117.398438 269.445312 C 116.539062 268.875 116.253906 268.304688 116.253906 267.445312 L 116.253906 98.382812 C 116.253906 97.527344 116.824219 96.671875 117.398438 96.386719 L 188.503906 55.261719 C 189.363281 54.691406 190.21875 54.691406 190.789062 55.261719 L 261.898438 96.386719 C 262.757812 96.957031 263.042969 97.527344 263.042969 98.382812 L 263.042969 100.667969 C 263.042969 101.527344 262.46875 102.382812 261.898438 102.667969 L 253.332031 107.523438 C 252.476562 108.09375 251.617188 108.09375 251.046875 107.523438 Z M 250.191406 107.808594 " clip-rule="evenodd"/></clipPath></defs><rect x="-37.5" width="450" fill="#ffffff" y="-37.499999" height="449.999989" fill-opacity="1"/><rect x="-37.5" width="450" fill="#000d0e" y="-37.499999" height="449.999989" fill-opacity="1"/><g clip-path="url(#d75ee1261a)"><g clip-path="url(#62ef9516ea)"><path fill="#5e17eb" d="M 96.835938 33.273438 L 96.835938 350.835938 L 280.765625 350.835938 L 280.765625 33.273438 Z M 96.835938 33.273438 " fill-opacity="1" fill-rule="nonzero"/></g></g></svg>